HIERARCHY
ROOT Hips
{
	OFFSET 0.000000 0.000000 0.000000
	CHANNELS 6 Xposition Yposition Zposition Zrotation Yrotation Xrotation 
	JOINT LeftUpLeg_virtual
	{
		OFFSET 0.000000 0.000000 0.000000
		CHANNELS 3 Zrotation Yrotation Xrotation
		JOINT LeftUpLeg
		{
			OFFSET 10.205400 -3.823500 0.155100
			CHANNELS 3 Zrotation Yrotation Xrotation
			JOINT LeftLeg
			{
				OFFSET 0.708757 -12.982077 0.567790
				CHANNELS 3 Zrotation Yrotation Xrotation
				JOINT LeftFoot
				{
					OFFSET -0.708756 -10.717838 -2.184338
					CHANNELS 3 Zrotation Yrotation Xrotation
					JOINT LeftToeBase
					{
						OFFSET 0.108149 -7.191104 7.560241
						CHANNELS 3 Zrotation Yrotation Xrotation
						End Site
						{
							OFFSET 0.000000 0.000000 0.000000
						}
					}
				}
			}
		}
	}
	JOINT RightUpLeg_virtual
	{
		OFFSET 0.000000 0.000000 0.000000
		CHANNELS 3 Zrotation Yrotation Xrotation
		JOINT RightUpLeg
		{
			OFFSET -10.205400 -3.823500 0.005500
			CHANNELS 3 Zrotation Yrotation Xrotation
			JOINT RightLeg
			{
				OFFSET -0.708756 -12.982134 0.610632
				CHANNELS 3 Zrotation Yrotation Xrotation
				JOINT RightFoot
				{
					OFFSET 0.708754 -10.717769 -1.945823
					CHANNELS 3 Zrotation Yrotation Xrotation
					JOINT RightToeBase
					{
						OFFSET -0.108140 -7.191069 7.372968
						CHANNELS 3 Zrotation Yrotation Xrotation
						End Site
						{
							OFFSET 0.000000 0.000000 0.000000
						}
					}
				}
			}
		}
	}
	JOINT Spine_virtual
	{
		OFFSET 0.000000 0.000000 0.000000
		CHANNELS 3 Zrotation Yrotation Xrotation
		JOINT Spine
		{
			OFFSET 0.000000 6.876099 0.125700
			CHANNELS 3 Zrotation Yrotation Xrotation
			JOINT Spine1
			{
				OFFSET 0.000000 8.022060 0.146608
				CHANNELS 3 Zrotation Yrotation Xrotation
				JOINT Spine2
				{
					OFFSET 0.000000 9.168068 0.167552
					CHANNELS 3 Zrotation Yrotation Xrotation
					JOINT Neck_virtual
					{
						OFFSET 0.000000 0.000000 0.000000
						CHANNELS 3 Zrotation Yrotation Xrotation
						JOINT Neck
						{
							OFFSET 0.000000 10.314075 0.188496
							CHANNELS 3 Zrotation Yrotation Xrotation
							JOINT Head
							{
								OFFSET 0.000000 7.643700 -2.377400
								CHANNELS 3 Zrotation Yrotation Xrotation
								End Site
								{
									OFFSET 0.000000 0.000000 0.000000
								}
							}
						}
					}
					JOINT LeftShoulder_virtual
					{
						OFFSET 0.000000 0.000000 0.000000
						CHANNELS 3 Zrotation Yrotation Xrotation
						JOINT LeftShoulder
						{
							OFFSET 4.392200 8.824978 0.174984
							CHANNELS 3 Zrotation Yrotation Xrotation
							JOINT LeftArm
							{
								OFFSET 8.771219 -2.981674 -0.026999
								CHANNELS 3 Zrotation Yrotation Xrotation
								JOINT LeftForeArm
								{
									OFFSET 8.512804 0.000000 -0.000000
									CHANNELS 3 Zrotation Yrotation Xrotation
									JOINT LeftHand
									{
										OFFSET 18.484802 0.000000 -0.000000
										CHANNELS 3 Zrotation Yrotation Xrotation
										End Site
										{
											OFFSET 0.000000 0.000000 0.000000
										}
									}
								}
							}
						}
					}
					JOINT RightShoulder_virtual
					{
						OFFSET 0.000000 0.000000 0.000000
						CHANNELS 3 Zrotation Yrotation Xrotation
						JOINT RightShoulder
						{
							OFFSET -4.392200 8.824993 0.141379
							CHANNELS 3 Zrotation Yrotation Xrotation
							JOINT RightArm
							{
								OFFSET -8.771282 -2.981682 -0.094208
								CHANNELS 3 Zrotation Yrotation Xrotation
								JOINT RightForeArm
								{
									OFFSET -8.494598 0.000000 0.000000
									CHANNELS 3 Zrotation Yrotation Xrotation
									JOINT RightHand
									{
										OFFSET -18.483803 0.000000 0.000001
										CHANNELS 3 Zrotation Yrotation Xrotation
										End Site
										{
											OFFSET 0.000000 0.000000 0.000000
										}
									}
								}
							}
						}
					}
				}
			}
		}
	}
}
MOTION
Frames: 11
Frame Time: 0.033333
19.674004 35.555378 48.723385 -0.291872 -19.799725 0.335112 -5.899402 -5.509232 12.841977 -4.726991 -2.109294 -9.104168 11.252123 5.058638 17.554064 -2.640749 4.150617 1.962327 0.000000 0.000000 0.000000 -0.936974 -4.131085 9.006915 2.556655 -6.114102 -31.434194 -6.093351 1.215940 11.673875 5.286841 11.511132 17.203467 0.000000 0.000000 0.000000 -2.693354 -1.716464 1.306639 2.997813 3.780483 -3.458657 -0.674236 -1.460587 9.429242 -0.051422 -0.002770 0.037672 -0.834156 0.189311 10.941533 8.018927 -13.572915 17.199314 0.000000 0.000000 0.000000 0.363500 0.547820 7.500505 0.412690 -7.247680 0.413000 -30.822670 15.233268 49.237048 -40.253693 -78.254939 48.696711 0.000000 0.000000 0.000000 -3.291646 1.985956 6.476603 12.682473 -0.966137 -7.982971 64.531532 17.924039 21.600608 -164.809992 66.920882 -162.070635 0.000000 0.000000 0.000000 
19.202646 35.443314 49.631802 -0.094962 -19.792065 0.633288 -6.264676 -5.409139 12.667449 -4.724329 -2.843476 -7.178591 11.681498 4.807905 17.580306 -2.266815 4.002750 1.423037 0.000000 0.000000 0.000000 -1.018725 -3.963279 8.484773 2.414291 -5.720166 -33.263370 -6.370049 1.079850 10.176410 5.316756 11.355612 18.015242 0.000000 0.000000 0.000000 -2.688694 -1.569277 0.831184 2.936642 3.364359 -3.588509 -0.698151 -1.551649 9.388986 0.037843 0.032169 0.052543 -0.860652 -0.036649 10.916954 6.998657 -13.303406 16.833133 0.000000 0.000000 0.000000 0.362252 0.377563 7.494647 -0.381547 -7.084594 0.557671 -30.329592 14.449149 49.718829 -39.408460 -77.786811 48.127654 0.000000 0.000000 0.000000 -3.342538 1.827311 6.493296 13.710294 -0.602623 -7.853916 61.911451 20.018818 19.530716 -166.448377 65.927042 -163.291928 0.000000 0.000000 0.000000 
18.645311 35.296497 50.585354 -0.307765 -19.494010 0.712773 -6.250933 -5.265843 12.733282 -4.616672 -4.044704 -4.927342 11.974534 4.358441 17.742893 -1.784193 4.206168 1.058751 0.000000 0.000000 0.000000 -0.762738 -3.915349 8.240172 2.122042 -5.389746 -34.230354 -6.544605 0.776563 9.434023 5.025575 11.245319 18.479089 0.000000 0.000000 0.000000 -2.329815 -1.550344 0.608860 2.934445 2.932624 -3.706565 -0.746203 -1.649574 9.184324 0.018143 0.047753 0.058959 -0.877234 -0.110380 10.852960 5.954256 -13.151377 16.665735 0.000000 0.000000 0.000000 0.398111 0.267693 7.428988 -1.153055 -6.885617 0.810096 -29.790580 13.576265 50.510297 -38.051578 -77.518604 47.058047 0.000000 0.000000 0.000000 -3.353484 1.668062 6.444821 14.506610 -0.068538 -7.634707 59.101531 22.050945 16.752390 -168.262093 65.006387 -164.760733 0.000000 0.000000 0.000000 
17.988674 35.110554 51.565956 -0.474724 -19.054927 1.025856 -6.018526 -5.235769 12.635846 -4.534027 -5.084510 -2.723829 12.013862 4.017254 17.717671 -1.418372 4.335201 0.653086 0.000000 0.000000 0.000000 -0.510493 -3.927510 7.834699 1.839827 -5.045766 -34.517577 -6.638705 0.336648 9.498124 4.435133 11.109153 18.555677 0.000000 0.000000 0.000000 -2.035108 -1.531722 0.078195 2.886655 2.518069 -4.050406 -0.666189 -1.781149 8.928286 -0.038647 0.025905 0.063490 -0.915014 -0.208295 10.720889 4.923582 -12.916074 16.474061 0.000000 0.000000 0.000000 0.398499 0.160349 7.343703 -1.909684 -6.586555 0.896276 -29.159857 12.964228 51.278666 -37.775516 -77.115704 47.098109 0.000000 0.000000 0.000000 -3.435806 1.646870 6.300708 15.146207 0.491391 -7.240462 56.071004 24.137670 13.797045 -169.064722 64.022901 -165.188863 0.000000 0.000000 0.000000 
17.228197 34.900131 52.626553 -0.605511 -18.566884 1.324464 -5.721354 -5.143727 12.431985 -4.325990 -5.764334 -0.399372 11.936352 3.935071 17.813991 -1.271319 4.198944 0.138091 0.000000 0.000000 0.000000 -0.313134 -3.840248 7.425967 1.779769 -4.749696 -34.061405 -6.582029 0.273599 10.021548 3.873221 10.997578 18.453431 0.000000 0.000000 0.000000 -1.664170 -1.414012 -0.519042 2.681433 2.045797 -4.527050 -0.669249 -1.913747 8.688605 -0.077332 0.017511 0.093326 -0.929398 -0.349795 10.586744 3.967936 -12.940826 16.374308 0.000000 0.000000 0.000000 0.441722 0.074131 7.182546 -2.672007 -6.221107 1.061487 -28.452461 12.476145 52.153733 -37.319576 -76.963815 46.950348 0.000000 0.000000 0.000000 -3.373489 1.558934 6.139040 15.689440 1.181895 -7.004713 52.886155 26.234907 10.644132 -169.873512 63.161157 -165.690485 0.000000 0.000000 0.000000 
16.360157 34.674316 53.773430 -0.549317 -18.187329 1.356250 -5.495019 -4.669822 12.224457 -4.110205 -6.190019 2.049642 11.783817 3.938861 18.040632 -1.272642 3.936927 -0.233857 0.000000 0.000000 0.000000 0.108101 -3.717615 6.894736 1.720779 -4.575795 -33.347644 -6.158906 0.696831 9.237897 3.963094 11.624901 21.008006 0.000000 0.000000 0.000000 -1.564301 -1.198048 -0.868808 2.547243 1.589037 -5.077428 -0.676905 -2.033264 8.453353 -0.028085 -0.032762 0.078077 -0.900229 -0.493796 10.286594 3.126857 -12.543477 16.322506 0.000000 0.000000 0.000000 0.537512 0.020756 7.006302 -3.430820 -5.838398 1.151316 -27.846353 12.186674 52.804261 -37.574322 -76.965563 47.479797 0.000000 0.000000 0.000000 -3.516235 1.417696 5.941661 16.161360 1.920526 -6.861477 50.122315 28.081612 7.912459 -170.493802 62.306126 -166.023129 0.000000 0.000000 0.000000 
15.396124 34.450054 55.026939 -0.520286 -17.702862 1.321671 -5.062696 -4.092412 12.092107 -3.765626 -6.499778 4.593585 11.814340 3.904055 18.526074 -1.202233 3.811322 -0.071163 0.000000 0.000000 0.000000 0.681799 -2.817662 6.059171 1.332651 -3.667900 -32.622431 -5.985136 2.665032 9.777773 4.369033 12.401475 20.660089 0.000000 0.000000 0.000000 -1.346029 -0.950539 -1.117754 2.387904 1.084902 -5.608544 -0.664130 -2.184595 8.231436 -0.044642 -0.069325 0.031235 -0.945703 -0.498973 10.020380 2.313778 -12.420924 16.171472 0.000000 0.000000 0.000000 0.522171 -0.076892 6.819231 -4.036283 -5.493894 1.189969 -27.320982 12.097674 53.201597 -38.038369 -76.997269 48.179082 0.000000 0.000000 0.000000 -3.591997 1.353801 5.619937 16.699053 2.599225 -6.308998 47.396356 30.020515 5.200071 -171.279083 61.580200 -166.537634 0.000000 0.000000 0.000000 
14.345448 34.259499 56.423313 -0.427115 -17.323033 0.633152 -4.724233 -3.289249 11.696244 -3.878001 -6.545583 7.026812 11.763391 4.148480 19.421013 -0.272860 4.648928 2.355981 0.000000 0.000000 0.000000 0.625501 -2.321730 5.592938 1.189921 -1.646328 -31.530308 -5.846080 4.204228 10.858465 4.859350 12.975539 19.699070 0.000000 0.000000 0.000000 -1.182365 -0.811540 -0.919179 2.242665 0.601893 -5.943244 -0.760750 -2.354675 8.159283 0.081755 -0.166533 -0.033872 -1.088924 -0.350943 9.642065 1.700485 -12.194936 16.003755 0.000000 0.000000 0.000000 0.425182 -0.031439 6.437770 -4.600767 -5.030850 1.195072 -26.900838 12.178758 53.340321 -38.898139 -77.113894 49.236392 0.000000 0.000000 0.000000 -3.677164 1.288068 5.367833 17.186573 3.410328 -6.364364 45.237265 31.307668 3.547416 -172.108828 61.016170 -167.084650 0.000000 0.000000 0.000000 
13.232838 34.121769 57.874783 -0.374418 -17.277887 0.039352 -4.343513 -2.796080 11.329655 -3.948602 -5.947901 9.045800 12.172406 6.948823 20.433915 0.043225 5.016582 5.045191 0.000000 0.000000 0.000000 0.350140 -2.200025 5.327145 1.163924 1.424199 -30.272283 -5.568174 5.500808 12.527446 4.921793 13.453564 18.272653 0.000000 0.000000 0.000000 -1.049200 -0.750136 -0.740735 2.173904 0.498711 -6.314977 -0.788423 -2.519802 8.095441 0.002012 -0.194057 -0.077185 -1.056692 -0.536389 9.451484 0.939757 -12.196712 15.814174 0.000000 0.000000 0.000000 0.624764 -0.036297 6.147841 -5.226981 -4.655065 1.176935 -26.858447 12.429747 53.217918 -38.864302 -77.094217 49.334224 0.000000 0.000000 0.000000 -3.807617 1.365619 5.096381 17.598843 4.209926 -6.075093 43.901888 32.220864 2.580647 -172.473697 60.674510 -167.166066 0.000000 0.000000 0.000000 
12.116524 34.060196 59.304935 -0.406933 -17.470808 -0.248486 -4.008742 -2.673262 10.922954 -3.763399 -5.159273 10.486372 13.620489 13.493685 22.379443 -0.185664 4.870779 7.231332 0.000000 0.000000 0.000000 -0.369258 -2.338493 5.130281 1.861423 4.020976 -29.041473 -4.506161 5.964501 14.685805 4.487332 13.446379 16.667644 0.000000 0.000000 0.000000 -0.898539 -0.519733 -0.630104 2.225381 0.368400 -6.755558 -0.787100 -2.311679 7.903285 -0.006022 -0.057471 -0.112395 -1.167400 -0.477327 9.066476 0.531089 -11.986980 15.425338 0.000000 0.000000 0.000000 0.450791 -0.025561 5.861283 -5.395552 -4.457962 1.152513 -26.705058 12.590883 53.100575 -39.794670 -77.339284 50.390991 0.000000 0.000000 0.000000 -3.802423 1.257539 4.768190 17.959906 4.707917 -5.767695 42.085006 32.654185 1.876049 -172.962233 60.064875 -167.327777 0.000000 0.000000 0.000000 
11.021478 34.078968 60.662861 -0.444877 -17.225358 0.137422 -3.899046 -3.396728 10.462328 -3.303424 -3.611245 10.910192 14.079462 13.862433 24.262007 -0.345010 4.722025 9.377973 0.000000 0.000000 0.000000 -0.757695 -2.960934 5.212824 3.230203 4.972376 -27.595426 -3.258226 5.688805 17.325804 2.743324 12.498400 14.779085 0.000000 0.000000 0.000000 -0.787153 -0.657367 -0.953651 2.241953 0.356970 -7.419436 -0.829747 -2.269941 7.647522 -0.042897 -0.064258 -0.080244 -1.119495 -0.512381 8.955287 0.061992 -11.927924 15.055759 0.000000 0.000000 0.000000 0.566500 -0.024195 5.771674 -5.582071 -4.355992 1.139705 -26.866421 12.630697 53.023462 -39.472626 -77.365990 50.145651 0.000000 0.000000 0.000000 -3.868425 1.335112 4.630932 18.213008 5.267126 -5.415701 40.804182 32.701754 1.369177 -173.266463 59.609520 -167.318297 0.000000 0.000000 0.000000 
